<svg t="1643121012706" class="icon" viewBox="0 0 1024 1024" version="1.1" xmlns="http://www.w3.org/2000/svg" p-id="6810" width="128" height="128"><path d="M301.36 699.15H189.4v-97.33c0-16.57-13.43-30-30-30s-30 13.43-30 30v127.33c0 16.57 13.43 30 30 30h141.96c16.57 0 30-13.43 30-30s-13.43-30-30-30zM159.4 452.17c16.57 0 30-13.43 30-30v-97.32h111.96c16.57 0 30-13.43 30-30s-13.43-30-30-30H159.4c-16.57 0-30 13.43-30 30v127.32c0 16.57 13.43 30 30 30zM864.6 571.83c-16.57 0-30 13.43-30 30v97.33H722.64c-16.57 0-30 13.43-30 30s13.43 30 30 30H864.6c16.57 0 30-13.43 30-30V601.83c0-16.57-13.43-30-30-30zM864.6 264.85H722.64c-16.57 0-30 13.43-30 30s13.43 30 30 30H834.6v97.32c0 16.57 13.43 30 30 30s30-13.43 30-30V294.85c0-16.57-13.43-30-30-30zM247.41 512.25c0 16.57 13.43 30 30 30h477.48c16.57 0 30-13.43 30-30s-13.43-30-30-30H277.41c-16.56 0-30 13.43-30 30z" fill="#ffffff" p-id="6811"></path></svg>