<svg t="1643190991501" class="icon" viewBox="0 0 1024 1024" version="1.1" xmlns="http://www.w3.org/2000/svg" p-id="15673" width="500" height="500"><path d="M115.256889 882.517333h796.444444V682.666667a28.444444 28.444444 0 1 1 56.888889 0v227.555555c0 1.137778 0 2.161778-0.170666 3.242667a28.444444 28.444444 0 0 1-28.330667 25.941333h-853.333333a28.444444 28.444444 0 0 1-28.330667-31.061333V682.666667a28.444444 28.444444 0 1 1 56.888889 0v199.850666z m429.795555-70.542222c-10.24 3.413333-20.48 3.413333-27.306666 0-3.413333 0-6.826667-3.413333-10.296889-6.826667l-232.504889-232.675555a36.977778 36.977778 0 0 1-10.24-23.893333c0-6.883556 3.413333-17.123556 10.24-24.007112a32.995556 32.995556 0 0 1 47.900444 0L497.208889 699.164444V62.577778c0-20.48 17.066667-34.190222 34.133333-34.190222 20.536889 0 34.247111 13.653333 34.247111 34.190222V699.164444l174.364445-174.535111a32.995556 32.995556 0 0 1 47.843555 0c13.653333 13.653333 13.653333 34.247111 0 47.900445l-232.504889 232.675555c-3.413333 3.413333-6.826667 3.413333-10.24 6.826667z" fill="#ffffff" p-id="15674"></path></svg>